Motion_pu06
version=1
nRows=15
nColumns=43
inDegrees=yes
endheader
time	pelvis_tilt	pelvis_list	pelvis_rotation	pelvis_tx	pelvis_ty	pelvis_tz	hip_flexion_r	hip_adduction_r	hip_rotation_r	knee_angle_r	ankle_angle_r	subtalar_angle_r	mtp_angle_r	hip_flexion_l	hip_adduction_l	hip_rotation_l	knee_angle_l	ankle_angle_l	subtalar_angle_l	mtp_angle_l	lumbar_extension	lumbar_bending	lumbar_rotation	neck_flexion	neck_lateral_bending	neck_rotation	arm_flex_r	arm_add_r	arm_rot_r	elbow_flex_r	pro_sup_r	wrist_flex_r	wrist_dev_r	hand_finger_flex_r	arm_flex_l	arm_add_l	arm_rot_l	elbow_flex_l	pro_sup_l	wrist_flex_l	wrist_dev_l	hand_finger_flex_l
      1.25750000	     -4.97414460	    -18.22230581	    -93.94630645	     -0.00966031	      0.94496004	      1.37173666	     -3.30034938	     -7.17691530	    -11.37721810	    -97.79717364	    -16.56995555	    -23.60498285	    -13.13708641	     -5.37904585	    -22.42244814	    -19.28314447	    -97.94135224	    -15.46694499	    -16.61073190	     -3.55545455	     16.34354064	      8.17785034	      5.87277244	     16.03345221	     -5.97966659	    -12.51752878	    -52.74611294	   -158.81057973	   -155.09364310	     48.74162367	    143.85202538	     26.34317003	     -2.60111376	     72.44129334	    122.52322210	    -14.58928588	     19.43345976	     42.35999222	    143.95109040	      4.71953678	      0.08829203	     80.43298523
      1.26000000	     -5.18764326	    -18.56722533	    -94.12794023	     -0.00998784	      0.94934415	      1.37221291	     -3.71029247	     -7.02538351	    -11.35670640	    -97.27178508	    -16.82681791	    -23.67032418	    -13.51944417	     -5.89796094	    -22.60325420	    -19.49515115	    -97.51354045	    -15.48490115	    -16.62817819	     -3.91307733	     16.63312870	      8.33625379	      5.70544714	     14.12010047	     -5.42889463	    -12.29414704	    -54.42522928	   -158.70511603	   -156.03490033	     49.57920946	    145.01566482	     25.89298362	     -2.18917799	     72.44020525	    120.88714721	    -14.41516718	     17.91542715	     43.56633602	    145.11442429	      4.88213191	      0.46712847	     80.21506084
      1.26250000	     -5.20900584	    -18.81226218	    -94.13023152	     -0.00959681	      0.95089684	      1.37160718	     -3.67981728	     -7.17792858	    -11.34936340	    -97.55782419	    -16.83252393	    -23.69179939	    -13.54082511	     -5.88811063	    -22.73614598	    -19.49762209	    -97.80443090	    -15.47921913	    -16.64606238	     -3.93248088	     16.53083675	      8.41249361	      5.69727824	     14.10003876	     -5.49748356	    -12.27723141	    -54.81574321	   -158.70701571	   -156.05359807	     49.74619109	    145.01528829	     25.87713699	     -2.20841206	     72.44409011	    120.50932219	    -14.44318936	     17.93335796	     43.50570797	    145.19711330	      4.93815892	      0.48381949	     80.20164713
      1.26500000	     -5.31724207	    -19.14823715	    -94.29010072	     -0.00975471	      0.95269391	      1.36977738	     -3.60768040	     -7.40047678	    -11.43048523	    -97.86180306	    -16.88267682	    -23.69434181	    -13.61938040	     -5.87511455	    -22.94738088	    -19.52297572	    -98.15746911	    -15.44168535	    -16.68475349	     -4.00550744	     16.22984874	      8.44151129	      5.69873246	     13.68171383	     -5.71224941	    -12.20213875	    -55.55704134	   -158.52285942	   -156.66784549	     50.38193067	    145.10849136	     25.76974830	     -2.21587951	     72.45484491	    120.00364168	    -14.37302644	     17.66955262	     44.11964269	    145.43993938	      4.97856687	      0.49017303	     80.15344257
      1.26750000	     -5.36484205	    -19.46166449	    -94.39424579	     -0.00987449	      0.95520953	      1.36887983	     -3.66059619	     -7.53705705	    -11.41610491	    -97.96993468	    -16.96237589	    -23.67781455	    -13.72987696	     -5.98086106	    -23.04031919	    -19.55918330	    -98.29622527	    -15.40370419	    -16.70574424	     -4.11234088	     16.14429934	      8.47497315	      5.63862487	     13.10049922	     -5.64380979	    -12.13878018	    -56.47267131	   -158.51789871	   -157.23762576	     50.90882931	    145.34638105	     25.62151968	     -2.16150667	     72.46339559	    119.20935626	    -14.41112660	     17.18144298	     44.73652198	    145.84494633	      5.04972103	      0.57292327	     80.08115028
      1.27000000	     -5.35923332	    -19.67468063	    -94.37663932	     -0.00944892	      0.95691244	      1.36862594	     -3.66631743	     -7.64951291	    -11.37233919	    -98.14530635	    -16.96880163	    -23.68642948	    -13.74667581	     -5.99530809	    -23.11473245	    -19.56653054	    -98.47987149	    -15.39707377	    -16.71415813	     -4.12878575	     16.12103464	      8.54490374	      5.60071253	     13.04404416	     -5.60753231	    -12.12959147	    -56.87232075	   -158.57833888	   -157.21560811	     50.98207432	    145.38044979	     25.60448991	     -2.15774152	     72.46450952	    118.80594794	    -14.48386496	     17.14844463	     44.65246328	    145.93164163	      5.09754723	      0.60550368	     80.06981945
      1.27250000	     -5.12019703	    -20.08382074	    -94.47167591	     -0.00940135	      0.96046387	      1.36801518	     -3.88901248	     -8.17512485	    -11.34004835	    -98.03383004	    -17.21788167	    -23.67409942	    -14.49815466	     -6.32035996	    -22.82332203	    -19.80298175	    -98.31468223	    -15.42105998	    -16.88711495	     -5.01624536	     16.15136435	      8.23507766	      5.75829900	     11.39543014	     -5.20885989	    -12.00859251	    -58.28413444	   -158.28273137	   -157.99788293	     51.77290594	    146.62044277	     24.82211477	     -2.09057771	     72.58198181	    117.37160091	    -13.72023865	     14.82423280	     45.81949590	    149.80748267	      6.50001308	      1.40739172	     79.26235478
      1.27500000	     -5.22224951	    -20.32733320	    -94.58728423	     -0.00915275	      0.96250329	      1.36703806	     -3.85248263	     -8.38087082	    -11.41675682	    -98.21210870	    -17.18145010	    -23.65081720	    -14.53136703	     -6.33444168	    -22.90194775	    -19.79448434	    -98.49596800	    -15.36779270	    -16.92418993	     -5.06459010	     16.04769253	      8.35482722	      5.72926827	     11.37672003	     -5.27008969	    -11.99762458	    -58.92458332	   -158.20642211	   -158.27032096	     52.22453907	    146.53862309	     24.81658856	     -2.16233999	     72.60705570	    116.82892404	    -13.81028688	     14.86461710	     46.24004071	    149.82910714	      6.59022653	      1.26181562	     79.19993043
      1.27750000	     -5.24757549	    -20.60204358	    -94.66452335	     -0.00917506	      0.96474446	      1.36603938	     -3.87881195	     -8.51654824	    -11.42223444	    -98.35302233	    -17.13287846	    -23.60911596	    -14.57129946	     -6.37198824	    -23.02503365	    -19.83828858	    -98.69304392	    -15.30338497	    -16.96039516	     -5.12455177	     15.94092146	      8.36725200	      5.66323121	     11.02339177	     -5.27191467	    -11.95322019	    -59.70547665	   -158.21881841	   -158.76852657	     52.66523813	    146.55629386	     24.77677216	     -2.18415574	     72.62634245	    116.21686636	    -13.91458888	     14.68174463	     46.74158377	    149.89059528	      6.65896716	      1.15754144	     79.12267834
      1.28000000	     -5.29661068	    -20.87812469	    -94.73625855	     -0.00904142	      0.96707459	      1.36514934	     -3.91368709	     -8.67654159	    -11.45205886	    -98.43644045	    -17.07456795	    -23.56255290	    -14.60661249	     -6.41386100	    -23.09585524	    -19.87191280	    -98.83287704	    -15.24592033	    -16.98595087	     -5.17963362	     15.86051598	      8.41942257	      5.61330863	     10.63038213	     -5.23890117	    -11.89667809	    -60.47605844	   -158.20263633	   -159.20211600	     53.12691948	    146.66542942	     24.71084122	     -2.16313150	     72.63457259	    115.55183327	    -13.92490676	     14.46544650	     47.12304695	    149.99082564	      6.72290033	      1.11017470	     79.05384864
      1.28250000	     -5.20517304	    -21.14947782	    -94.67697664	     -0.00901851	      0.97014326	      1.36510774	     -4.11840551	     -8.71318416	    -11.37130801	    -98.35793293	    -16.92105878	    -23.46755161	    -14.69367968	     -6.62870765	    -23.12574160	    -19.98502457	    -98.70418948	    -15.18191338	    -16.99323686	     -5.32005982	     15.98857415	      8.26299923	      5.46082958	      9.77383021	     -4.92942270	    -11.80635832	    -61.56557387	   -158.17457936	   -159.75407396	     53.60301387	    147.06782090	     24.54362536	     -2.04092398	     72.63026987	    114.58622970	    -13.87703840	     13.80950350	     47.76086949	    150.38847072	      6.86005473	      1.14063033	     78.88546137
      1.28500000	     -5.25322794	    -21.37137482	    -94.75696617	     -0.00868960	      0.97193490	      1.36450435	     -4.11585350	     -8.90751224	    -11.41079458	    -98.52497992	    -16.90244980	    -23.46212794	    -14.70097974	     -6.59903595	    -23.17791107	    -19.95146202	    -98.96138200	    -15.16420735	    -17.01298305	     -5.32994315	     15.90943414	      8.39963384	      5.47535681	      9.74597120	     -4.93931351	    -11.79442704	    -61.99538759	   -158.22005875	   -159.79030874	     53.78537840	    147.07880810	     24.52687685	     -2.04971404	     72.63028781	    114.21229781	    -13.95097799	     13.81323140	     47.66095679	    150.44159881	      6.90670595	      1.15403606	     78.87177066
      1.28750000	     -5.21391963	    -21.72320422	    -94.76975248	     -0.00897793	      0.97497414	      1.36326669	     -4.23744073	     -8.99528942	    -11.38336871	    -98.53781152	    -16.67528634	    -23.38746519	    -14.76456887	     -6.72061336	    -23.24059125	    -20.05758984	    -98.96690280	    -15.08912504	    -17.02421417	     -5.44282005	     15.81739866	      8.22340128	      5.34124674	      8.93617296	     -4.82353471	    -11.70914457	    -63.19346667	   -158.13274523	   -160.65829281	     54.55971410	    147.42335091	     24.31846081	     -1.96381718	     72.60655810	    113.23359130	    -13.85088032	     13.19211150	     48.58250031	    150.85523287	      6.95589194	      1.21035431	     78.75287347
      1.29000000	     -5.26564141	    -21.94018202	    -94.86891708	     -0.00867136	      0.97686597	      1.36259562	     -4.24919251	     -9.19522731	    -11.44666875	    -98.69160527	    -16.64776815	    -23.37529923	    -14.77281612	     -6.69694580	    -23.28462151	    -20.01234119	    -99.19575547	    -15.06938561	    -17.04367423	     -5.45504070	     15.74584012	      8.36371536	      5.37190155	      8.88149693	     -4.82129946	    -11.69599131	    -63.66235314	   -158.16497810	   -160.70925862	     54.75935962	    147.45007953	     24.29227867	     -1.96703324	     72.60376190	    112.84763557	    -13.92468482	     13.17248906	     48.51926955	    150.92744749	      7.00049269	      1.23137847	     78.73983578
      1.29250000	     -5.15854191	    -22.28340731	    -94.86013459	     -0.00875507	      0.98075556	      1.36229729	     -4.60560305	     -9.51294806	    -11.61148293	    -98.43748834	    -16.22862542	    -23.13176084	    -14.94066844	     -6.98376930	    -23.15116700	    -20.11134500	    -98.88516286	    -15.05639112	    -17.03404071	     -5.74253373	     15.88787341	      8.10648258	      5.32818671	      7.55941769	     -4.35542857	    -11.59106198	    -65.10295818	   -157.88631455	   -161.45727922	     55.56596435	    148.23102684	     23.84890604	     -1.78024156	     72.52213538	    111.55924144	    -13.48665105	     12.11247696	     49.51403861	    152.23823707	      7.34261229	      1.54014567	     78.47084217
